<svg xmlns="http://www.w3.org/2000/svg" version="1.1" xmlns:xlink="http://www.w3.org/1999/xlink" width="1000" height="1000"><g clip-path="url(#SvgjsClipPath1164)"><rect width="1000" height="1000" fill="#ffffff"></rect><g transform="matrix(37.5,0,0,37.5,50,50)"><svg xmlns="http://www.w3.org/2000/svg" version="1.1" xmlns:xlink="http://www.w3.org/1999/xlink" width="24" height="24"><svg width="24" height="24" viewBox="0 0 24 24" fill="none" xmlns="http://www.w3.org/2000/svg">
<g clip-path="url(#clip0_13_32)">
<path d="M12 1.999L12.041 2.001L12.249 2.004C14.2835 2.06739 16.2174 2.90393 17.6567 4.34327C19.0961 5.7826 19.9326 7.71646 19.996 9.751L19.999 9.999L20.176 10.005C20.9096 10.0481 21.6019 10.3589 22.1215 10.8785C22.6411 11.3981 22.9519 12.0904 22.995 12.824L23 13C23 13.7957 22.6839 14.5587 22.1213 15.1213C21.5587 15.6839 20.7956 16 20 16L19.999 17.696L21.832 20.446C21.927 20.5887 21.9838 20.7534 21.9968 20.9243C22.0098 21.0952 21.9787 21.2666 21.9064 21.4221C21.8341 21.5775 21.7231 21.7117 21.584 21.8119C21.4449 21.912 21.2823 21.9747 21.112 21.994L21 22H11C7.555 22.002 4.673 19.51 4.099 16.176L4.071 15.998L4 15.999C3.23479 15.999 2.49849 15.7067 1.94174 15.1817C1.38499 14.6568 1.04989 13.9389 1.005 13.175L1 13C1 12.2044 1.31607 11.4413 1.87868 10.8787C2.44129 10.3161 3.20435 10 4 10L4.004 9.75C4.06895 7.67259 4.93985 5.702 6.4323 4.25547C7.92474 2.80894 9.92157 2.00002 12 2V1.999ZM12 12C11.4696 12 10.9609 12.2107 10.5858 12.5858C10.2107 12.9609 10 13.4696 10 14C10 14.2652 10.1054 14.5196 10.2929 14.7071C10.4804 14.8946 10.7348 15 11 15H13C13.2652 15 13.5196 14.8946 13.7071 14.7071C13.8946 14.5196 14 14.2652 14 14C14 13.4696 13.7893 12.9609 13.4142 12.5858C13.0391 12.2107 12.5304 12 12 12ZM10.01 8L9.883 8.007C9.6299 8.0371 9.39785 8.16272 9.23426 8.35817C9.07067 8.55362 8.98789 8.80416 9.00283 9.05861C9.01776 9.31305 9.1293 9.55218 9.31463 9.72715C9.49997 9.90212 9.74512 9.99972 10 10L10.127 9.993C10.3801 9.9629 10.6121 9.83729 10.7757 9.64183C10.9393 9.44638 11.0221 9.19584 11.0072 8.9414C10.9922 8.68695 10.8807 8.44782 10.6954 8.27285C10.51 8.09788 10.2649 8.00028 10.01 8ZM14.01 8L13.883 8.007C13.6299 8.0371 13.3979 8.16272 13.2343 8.35817C13.0707 8.55362 12.9879 8.80416 13.0028 9.05861C13.0178 9.31305 13.1293 9.55218 13.3146 9.72715C13.5 9.90212 13.7451 9.99972 14 10L14.127 9.993C14.3801 9.9629 14.6121 9.83729 14.7757 9.64183C14.9393 9.44638 15.0221 9.19584 15.0072 8.9414C14.9922 8.68695 14.8807 8.44782 14.6954 8.27285C14.51 8.09788 14.2649 8.00028 14.01 8Z" fill="black"></path>
</g>
<defs>
<clipPath id="clip0_13_32">
<rect width="24" height="24" fill="white"></rect>
</clipPath>
<clipPath id="SvgjsClipPath1164"><rect width="1000" height="1000" x="0" y="0" rx="200" ry="200"></rect></clipPath></defs>
</svg></svg></g></g></svg>